<?xml version="1.0" encoding="UTF-8" standalone="no"?><!DOCTYPE svg PUBLIC "-//W3C//DTD SVG 1.1//EN" "http://www.w3.org/Graphics/SVG/1.1/DTD/svg11.dtd"><svg width="100%" height="100%" viewBox="0 0 195 195" version="1.1" xmlns="http://www.w3.org/2000/svg" xmlns:xlink="http://www.w3.org/1999/xlink" xml:space="preserve" xmlns:serif="http://www.serif.com/" style="fill-rule:evenodd;clip-rule:evenodd;stroke-linejoin:round;stroke-miterlimit:2;"><rect id="favicon" x="0" y="0" width="195" height="195" style="fill:none;"/><g id="favicon1" serif:id="favicon"><path d="M113.427,193.639c-5.183,0.853 -10.504,1.297 -15.927,1.297c-53.812,-0 -97.5,-43.689 -97.5,-97.5c0,-48.127 34.945,-88.157 80.825,-96.077c-0.142,0.9 -0.216,1.823 -0.216,2.762c0,8.083 5.447,14.903 12.867,16.988l0,37.047l-71.548,-0c-2.381,-0 -4.528,1.434 -5.439,3.634c-0.911,2.2 -0.408,4.732 1.276,6.416l52.46,52.46l-0,23.668c-7.069,2.301 -12.183,8.948 -12.183,16.78c-0,9.737 7.905,17.642 17.642,17.642c9.737,0 17.643,-7.905 17.643,-17.642c-0,-7.512 -4.706,-13.934 -11.328,-16.477l0,-26.41c0,-1.561 -0.62,-3.059 -1.724,-4.163l-44.134,-44.134l63.223,0l59.495,0l-43.708,43.708c-1.104,1.104 -1.724,2.601 -1.724,4.163l0,75.838Zm2.294,-192.001c45.116,8.543 79.279,48.212 79.279,95.798c0,44.19 -29.462,81.553 -69.799,93.502l0,-70.699l52.034,-52.033c1.684,-1.684 2.187,-4.216 1.276,-6.416c-0.911,-2.2 -3.058,-3.634 -5.439,-3.634l-67.821,-0l-0,-37.837c6.259,-2.711 10.643,-8.947 10.643,-16.198c0,-0.842 -0.059,-1.671 -0.173,-2.483Z" style="fill:#1fa4b5;"/></g></svg>